# xmcd
#
# Track frame offsets:
#	150
#	13830
#	32365
#	51582
#	66965
#	85002
#	96867
#	109747
#	125730
#	144737
#	158582
#	175640
#
# Disc length: 2598 seconds
#
# Revision: 0
# Processed by: cddbd v1.5.2PL0 Copyright (c) Steve Scherf et al.
# Submitted via: EZCDAudioConverter 2.4.0.1
#
DISCID=9d0a240c
DTITLE=Truck Riders - Deutsche Country-Hits CD3
DYEAR=1900
DGENRE=Country
TTITLE0=Tanze Mit Mir
TTITLE1=Auf Und Davon
TTITLE2=Tennessee
TTITLE3=Frei Sein
TTITLE4=Wiedersehen
TTITLE5=Dann Traf Ich Dich
TTITLE6=Country Lady
TTITLE7=Sieben Meilen
TTITLE8=Die Zeit Mit Dir
TTITLE9=Pit
TTITLE10=Die Strasse War Sein Zuhause
TTITLE11=Zirkus-Cowboy
EXTD=
EXTT0=
EXTT1=
EXTT2=
EXTT3=
EXTT4=
EXTT5=
EXTT6=
EXTT7=
EXTT8=
EXTT9=
EXTT10=
EXTT11=
PLAYORDER=
